PathFileType	3	(X/Y/Z)	F:\ViconData\AntennenMessung\Messung1\Session1\ID15.trc
DataRate	CameraRate	NumFrames	NumMarkers	Units	OrigDataRate	OrigDataStartFrame	OrigNumFrames
120.0	120.0	4	70	mm	120.0	1007	1342	
Frame#	Time	Ashort			Along			Atop			A4			Bshort			Blong			Btop			B4			Cshort			Clong			Ctop			C4			Dshort			Dlong			Dtop			D4			Eshort			Elong			Etop			E4			Fshort			Flong			Ftop			F4			Gshort			Glong			Gtop			G4			Hshort			Hlong			Htop			H4			I1			I2			I3			I4			I5			WandAshort			WandAlong			WandAtop			WandA4			WandA15			WandBshort			WandB4			WandB5			WandBtop			WandBlong			WandCshort			WandClong			WandCtop			WandC4			WandC5			Acenter			Aantenna			Bcenter			Bantenna			Ccenter			Cantenna			Dcenter			Dantenna			Ecenter			Eantenna			Fcenter			Fantenna			Gcenter			Gantenna			Hcenter			Hantenna			Icenter			Iantenna			
		X1	Y1	Z1	X2	Y2	Z2	X3	Y3	Z3	X4	Y4	Z4	X5	Y5	Z5	X6	Y6	Z6	X7	Y7	Z7	X8	Y8	Z8	X9	Y9	Z9	X10	Y10	Z10	X11	Y11	Z11	X12	Y12	Z12	X13	Y13	Z13	X14	Y14	Z14	X15	Y15	Z15	X16	Y16	Z16	X17	Y17	Z17	X18	Y18	Z18	X19	Y19	Z19	X20	Y20	Z20	X21	Y21	Z21	X22	Y22	Z22	X23	Y23	Z23	X24	Y24	Z24	X25	Y25	Z25	X26	Y26	Z26	X27	Y27	Z27	X28	Y28	Z28	X29	Y29	Z29	X30	Y30	Z30	X31	Y31	Z31	X32	Y32	Z32	X33	Y33	Z33	X34	Y34	Z34	X35	Y35	Z35	X36	Y36	Z36	X37	Y37	Z37	X38	Y38	Z38	X39	Y39	Z39	X40	Y40	Z40	X41	Y41	Z41	X42	Y42	Z42	X43	Y43	Z43	X44	Y44	Z44	X45	Y45	Z45	X46	Y46	Z46	X47	Y47	Z47	X48	Y48	Z48	X49	Y49	Z49	X50	Y50	Z50	X51	Y51	Z51	X52	Y52	Z52	X53	Y53	Z53	X54	Y54	Z54	X55	Y55	Z55	X56	Y56	Z56	X57	Y57	Z57	X58	Y58	Z58	X59	Y59	Z59	X60	Y60	Z60	X61	Y61	Z61	X62	Y62	Z62	X63	Y63	Z63	X64	Y64	Z64	X65	Y65	Z65	X66	Y66	Z66	X67	Y67	Z67	X68	Y68	Z68	X69	Y69	Z69	X70	Y70	Z70	
1007	8.3833333	-1038.2024	214.53572	-1644.068	-1109.4089	204.13376	-1599.299	-1063.6663	172.93071	-1625.8047	-1054.1406	262.23804	-1634.8481	-1352.656	235.1226	1003.7904	-1281.3601	227.30795	1052.4073	-1322.7562	193.8101	1021.0721	-1284.3719	287.97226	1052.7197	814.02771	187.52888	1209.5005	892.61285	177.79478	1180.0625	844.54822	145.55104	1198.3242	861.23425	292.26813	1167.4315	1115.7692	209.63957	-1401.5514	1056.2961	194.10481	-1460.1632	1095.2415	162.59007	-1423.7891	1069.7904	238.81392	-1425.7223	-1204.5892	1686.0326	-1563.0657	-1129.1259	1688.2815	-1605.9271	-1173.1075	1724.3683	-1581.9475	-1134.0299	1581.0291	-1603.8042	-1239.5439	1699.1229	1119.4807	-1309.1162	1698.5385	1071.832	-1270.4156	1736.348	1096.8998	-1244.9441	1593.7721	1106.5884	988.90375	1664.2386	1162.2583	957.34393	1700.6049	1183.7446	921.97852	1662.2902	1214.9327	939.89691	1659.4463	1159.9331	999.12207	1668.448	-1579.3472	1058.9181	1670.1647	-1518.5804	1025.0038	1708.051	-1551.0505	1059.3186	1672.1575	-1585.3484	-201.69536	1171.6169	-147.20314	-197.00256	1170.8193	-231.22241	-199.15611	1208.5909	-184.94691	-166.66898	1171.0731	-182.59383	-247.62932	1172.594	-186.65424																																														-1068.5731	210.09914	-1624.9731	-1073.6763	248.75415	-1624.1085	-1321.3679	231.69315	1025.1257	-1319.948	270.44608	1029.2725	848.55902	183.25157	1196.5651	852.68042	221.99104	1194.7573	1088.9323	202.62962	-1427.9995	1082.8944	240.9481	-1432.0291	-1171.8358	1687.0088	-1581.6687	-1170.509	1648.0323	-1581.3779	-1270.8715	1698.8596	1098.025	-1271.3453	1659.88	1099.1952	952.88397	1705.744	1186.781	972.87311	1733.8491	1168.5729	1026.5492	1669.2354	-1551.4746	1028.1007	1630.2686	-1551.9004	-199.60561	1171.2617	-184.61765	-200.07516	1132.2659	-184.27368
1008	8.3916667	-1038.2201	214.57005	-1644.0784	-1109.4116	204.16888	-1599.3101	-1063.7423	173.14824	-1625.8698	-1054.1887	262.26398	-1634.8472	-1352.7726	235.0565	1003.8291	-1281.3943	227.34981	1052.4113	-1322.6694	193.90997	1021.0178	-1284.4095	287.83267	1052.833	814.05634	187.54362	1209.4739	892.27765	178.48283	1179.2295	844.4649	145.56702	1198.285	861.13977	292.47183	1167.7065	1115.778	209.64183	-1401.5353	1056.288	194.08235	-1460.165	1095.2445	162.62199	-1423.7925	1069.8059	238.84155	-1425.7651	-1204.5692	1686.0276	-1563.071	-1129.1599	1688.4331	-1606.4843	-1173.1404	1724.4421	-1581.9473	-1134.0297	1581.041	-1603.819	-1239.5338	1699.1006	1119.4698	-1309.3033	1698.864	1071.9581	-1270.415	1736.3234	1096.8903	-1244.9729	1593.6362	1106.652	988.95728	1664.2977	1162.2196	957.32904	1700.5144	1183.823	921.974	1662.3264	1214.9114	939.81854	1659.4274	1159.9259	999.14301	1668.4208	-1579.3102	1058.9241	1670.1689	-1518.5798	1025.0074	1708.0521	-1551.0396	1059.3029	1672.1976	-1585.4584	-201.69189	1171.5945	-147.19986	-197.01035	1170.827	-231.22565	-199.14911	1208.5824	-184.96428	-166.65498	1171.0417	-182.57974	-247.60443	1172.5704	-186.64497																																														-1068.5875	210.13332	-1624.9819	-1073.652	248.79195	-1624.0538	-1321.4182	231.67117	1025.1697	-1320.1344	270.41653	1029.4299	848.10614	183.59944	1196.3083	851.81812	222.37007	1194.2935	1088.9275	202.61914	-1427.9973	1082.876	240.93561	-1432.0256	-1171.9066	1687.0695	-1581.8749	-1170.6199	1648.0907	-1581.7996	-1271.0497	1698.9937	1098.0081	-1271.7124	1660.0167	1099.1753	952.69885	1705.8163	1186.9855	972.62787	1734.025	1168.8719	1026.5637	1669.2225	-1551.4539	1028.1256	1630.2561	-1551.8695	-199.60539	1171.2524	-184.64876	-200.08205	1132.2567	-184.31914
1009	8.4	-1038.1923	214.59225	-1644.0863	-1109.3853	204.13814	-1599.3331	-1063.6543	172.90858	-1625.8268	-1054.1714	262.23135	-1634.8525	-1352.7273	235.08891	1003.8466	-1281.3879	227.20114	1052.4	-1322.6641	193.93446	1020.9531	-1284.5178	287.91895	1052.8662	814.1037	187.56306	1209.4298	892.70612	179.1584	1178.7111	844.51404	145.51573	1198.3241	861.01685	292.3931	1167.4771	1115.7617	209.61671	-1401.5327	1056.2863	194.16098	-1460.1986	1095.2886	162.6971	-1423.8052	1069.825	238.85396	-1425.7194	-1204.5905	1686.0339	-1563.0562	-1129.1217	1688.2954	-1605.9529	-1173.1132	1724.3804	-1581.9667	-1134.0269	1581.0349	-1603.804	-1239.5698	1699.1455	1119.4924	-1309.2343	1698.6886	1071.9004	-1270.3918	1736.3131	1096.8928	-1244.8862	1593.8418	1106.4819	988.9032	1664.2312	1162.2336	957.38605	1700.483	1183.8225	921.93225	1662.3466	1214.8975	939.86365	1659.4314	1159.9271	999.15137	1668.423	-1579.323	1058.9287	1670.1681	-1518.5841	1025.0065	1708.0503	-1551.0502	1059.3048	1672.1569	-1585.3528	-201.69952	1171.6018	-147.20084	-196.99561	1170.8206	-231.23045	-199.08562	1208.4899	-184.94081	-166.64799	1171.0562	-182.58849	-247.60905	1172.5605	-186.64014																																														-1068.5872	210.129	-1624.9795	-1073.7098	248.78108	-1624.0996	-1321.3763	231.62253	1025.184	-1320.053	270.35678	1029.5321	847.8158	183.95834	1196.2548	851.14844	222.75954	1194.1661	1088.9862	202.65865	-1427.9437	1082.9421	240.98247	-1431.9127	-1171.8292	1687.0156	-1581.6776	-1170.49	1648.0398	-1581.3762	-1270.9434	1698.9397	1098.0591	-1271.5186	1659.963	1099.2754	952.77533	1705.7864	1186.9808	972.77441	1733.9534	1168.8793	1026.5648	1669.2231	-1551.4685	1028.129	1630.2567	-1551.8883	-199.6046	1171.2538	-184.62372	-200.1481	1132.259	-184.29166
1010	8.4083333	-1038.1937	214.55162	-1644.0638	-1109.3975	204.19238	-1599.3268	-1063.6443	172.96429	-1625.8164	-1054.1619	262.22244	-1634.8545	-1352.7528	235.04945	1003.7661	-1281.3644	227.38055	1052.449	-1322.7007	193.88004	1020.9756	-1284.451	287.91776	1052.7723	814.12598	187.50917	1209.4507	892.30688	178.52179	1179.2645	844.50787	145.49535	1198.3711	861.0166	292.28287	1167.3169	1115.7675	209.60771	-1401.5219	1056.2491	194.15268	-1460.256	1095.1984	162.53726	-1423.8215	1069.9388	239.01326	-1425.6433	-1204.6013	1686.0513	-1563.0435	-1129.167	1688.4373	-1606.4969	-1173.1052	1724.3617	-1581.9622	-1134.0292	1581.0437	-1603.817	-1239.561	1699.15	1119.4825	-1309.2585	1698.7722	1071.9224	-1270.4128	1736.3481	1096.9001	-1245.5929	1592.7985	1110.6492	988.94305	1664.2595	1162.224	957.62329	1700.3353	1183.8361	922.10852	1662.28	1214.9297	939.85663	1659.4647	1159.8785	999.12439	1668.468	-1579.3704	1058.9091	1670.1578	-1518.5909	1025.0139	1708.0564	-1551.0548	1059.3112	1672.1526	-1585.3456	-201.70819	1171.5919	-147.20445	-197.00186	1170.8213	-231.2258	-199.14424	1208.5909	-184.96114	-166.64014	1171.0652	-182.60234	-247.64128	1172.5916	-186.63972																																														-1068.5385	210.13683	-1624.9982	-1073.6279	248.79395	-1624.1475	-1321.4572	231.68753	1025.1078	-1320.1829	270.43597	1029.3429	848.1015	183.60345	1196.3324	851.75787	222.37624	1194.2584	1088.9222	202.63686	-1428.0132	1082.9236	240.96393	-1432.0197	-1171.8845	1687.0859	-1581.8896	-1170.608	1648.1069	-1581.814	-1270.9868	1698.9795	1098.0382	-1271.5856	1660.0022	1099.2253	952.93646	1705.7338	1187.0702	972.93378	1733.921	1168.9984	1026.5509	1669.243	-1551.4874	1028.094	1630.2761	-1551.9219	-199.61102	1171.2484	-184.64484	-200.09845	1132.2529	-184.31453
